<svg width="120" height="32" viewBox="0 0 120 32" fill="none" xmlns="http://www.w3.org/2000/svg">
<path d="M14.9521 7.10659L0 0V21.6701L9.93726 26.4363L6.30784 31.5997L13.6997 28.0917L17.7251 32L20.2986 25.9067L29.9999 21.5377V0L14.9521 7.10659ZM26.252 19.4089L11.4027 26.4259L13.0522 23.6456L3.74687 19.3432V5.57415L14.9989 10.8032L26.251 5.57415V19.4089H26.252Z" fill="#36D7DC"/>
<path d="M107.816 27.316C107.822 27.6404 107.718 27.7343 107.41 27.7311C106.038 27.7162 104.666 27.7141 103.295 27.7322C102.959 27.7365 102.854 27.6372 102.862 27.2861C102.882 26.191 102.869 25.096 102.869 23.9998C102.869 17.2768 102.874 10.5528 102.857 3.82977C102.856 3.33987 102.958 3.18511 103.455 3.20112C104.716 3.24168 105.979 3.23528 107.24 3.20326C107.69 3.19152 107.822 3.31212 107.82 3.79028C107.802 7.86954 107.81 11.9488 107.81 16.0281C107.81 16.1914 107.81 16.3547 107.81 16.5916C108.422 15.9726 108.986 15.4229 109.528 14.8498C110.944 13.3481 112.351 11.8367 113.76 10.3276C113.954 10.1194 114.143 9.94867 114.459 9.9508C116.123 9.96254 117.787 9.9572 119.452 9.95934C119.5 9.95934 119.548 9.98602 119.604 10.002C119.565 10.2454 119.377 10.3521 119.246 10.4951C117.407 12.4942 115.564 14.489 113.716 16.4806C113.529 16.6823 113.399 16.8168 113.594 17.137C115.679 20.5545 117.743 23.9849 119.814 27.4109C119.86 27.4857 119.937 27.5412 120 27.6052C120 27.6426 120 27.681 120 27.7183C118.208 27.7205 116.415 27.7141 114.623 27.7333C114.287 27.7365 114.099 27.6244 113.929 27.3234C112.73 25.2059 111.148 22.4426 109.951 20.3229C109.722 19.9184 109.951 20.3229 109.951 20.3229C107.8 22.3156 109.951 20.3229 107.8 22.3156" fill="#262525"/>
<path d="M46.9472 25.0517C46.9472 25.8097 46.9332 26.463 46.9537 27.1162C46.9634 27.4286 46.8707 27.5397 46.5386 27.5366C45.0885 27.5207 43.6385 27.5239 42.1884 27.5345C41.8962 27.5366 41.7755 27.455 41.7916 27.1533C41.8132 26.7605 41.797 26.3666 41.797 25.9728C41.797 18.5911 41.8024 11.2094 41.7852 3.8267C41.7841 3.34073 41.8897 3.18615 42.4083 3.20097C43.743 3.24015 45.0788 3.23062 46.4146 3.20415C46.8405 3.19568 46.9612 3.30791 46.958 3.73247C46.9375 6.39313 46.9483 9.0538 46.9483 11.7134C46.9483 11.8955 46.9483 12.0787 46.9483 12.2534C47.2642 11.9728 47.5715 11.7123 47.8647 11.4371C50.4803 8.97862 55.3372 9.31954 57.9441 11.4847C59.8653 13.0803 60.7753 15.1734 61.0038 17.5641C61.2195 19.8203 60.9445 22.0141 59.736 24.0162C57.9765 26.9288 54.8391 27.9855 51.9325 27.6837C49.635 27.4466 48.642 26.8621 46.9472 25.0517ZM51.3686 23.5048C53.3847 23.5165 54.9124 22.4429 55.5474 20.5551C55.8763 19.5779 55.9571 18.5784 55.7588 17.5662C55.4439 15.958 54.6332 14.6906 53.0236 14.0956C51.4031 13.4964 49.8485 13.7102 48.5299 14.8452C47.2071 15.9844 46.8524 17.5196 46.9634 19.1777C47.1359 21.7504 48.9191 23.491 51.3686 23.5048Z" fill="#262525"/>
<path d="M88.985 20.1778C87.0105 20.1778 85.0348 20.1651 83.0602 20.1874C82.6257 20.1927 82.514 20.0609 82.5054 19.6476C82.4674 17.8287 82.6191 16.0438 83.3388 14.3439C84.2545 12.1797 85.8465 10.704 88.1495 10.0782C91.0842 9.28134 93.9659 9.41096 96.6352 10.9961C98.9901 12.3943 100.206 14.5351 100.594 17.1668C100.825 18.7329 100.731 20.2777 100.246 21.7895C99.415 24.384 97.6972 26.1923 95.0778 27.0678C91.7952 28.1642 88.5916 27.9252 85.5539 26.2072C84.9048 25.8396 84.3369 25.3604 83.8026 24.843C83.614 24.6592 83.5967 24.5126 83.7874 24.3245C84.545 23.5787 85.3014 22.8318 86.047 22.0743C86.2714 21.8458 86.4025 21.9925 86.5672 22.1348C87.6206 23.0432 88.8463 23.5744 90.2422 23.7136C92.4443 23.9346 94.4677 22.9349 95.3119 20.7558C95.4821 20.317 95.4376 20.1629 94.9099 20.1693C92.9353 20.1916 90.9596 20.1778 88.985 20.1778ZM91.5015 17.2061C92.7066 17.2061 93.9128 17.1944 95.1179 17.2136C95.494 17.2199 95.6078 17.0956 95.5059 16.7535C95.468 16.6282 95.4365 16.5007 95.3975 16.3753C94.7549 14.2929 93.0783 13.1996 90.8101 13.3845C88.9894 13.5333 87.729 14.7944 87.418 16.7163C87.3453 17.1647 87.5003 17.2178 87.885 17.2125C89.0902 17.1955 90.2953 17.2061 91.5015 17.2061Z" fill="#262525"/>
<path d="M74.2554 20.186C72.4118 20.186 70.5693 20.1849 68.7258 20.186C68.1093 20.186 68.1001 20.203 68.3297 20.815C69.2811 23.3428 71.8841 24.4167 74.5596 23.3843C75.2782 23.1076 75.9437 22.7234 76.497 22.1721C76.7654 21.9049 76.9175 21.9507 77.1493 22.2061C77.7964 22.916 78.4579 23.6132 79.1326 24.2943C79.3592 24.5221 79.3378 24.6562 79.1255 24.8787C77.7117 26.3581 75.9988 27.216 74.0379 27.5512C71.8494 27.9259 69.7088 27.7556 67.6948 26.7285C65.0367 25.3736 63.675 23.0629 63.3055 20.053C63.087 18.2798 63.2544 16.5492 63.9057 14.8994C65.0704 11.947 67.2559 10.3057 70.2274 9.77145C71.8106 9.4862 73.401 9.54794 74.9485 10.0237C77.9057 10.9326 79.497 13.1135 80.1197 16.1734C80.3535 17.3251 80.3586 18.4894 80.3576 19.6581C80.3576 20.07 80.2494 20.203 79.838 20.1977C77.9771 20.1722 76.1162 20.186 74.2554 20.186ZM71.878 17.209C73.0498 17.209 74.2227 17.2037 75.3945 17.2133C75.6589 17.2154 75.81 17.1643 75.7641 16.8419C75.6334 15.9106 75.3813 15.024 74.6882 14.38C73.4826 13.2593 72.0678 13.0911 70.5918 13.6222C69.1382 14.1448 68.4563 15.3826 68.0991 16.8589C68.0143 17.209 68.2297 17.2133 68.4686 17.2122C69.6057 17.2059 70.7418 17.209 71.878 17.209Z" fill="#262525"/>
</svg>
